<svg xmlns="http://www.w3.org/2000/svg" viewBox="0 0 64 64"><g stroke="#2a2418" stroke-width="2.5" stroke-linejoin="round" stroke-linecap="round">
<path d="M20 39 V12 M32 39 V7 M44 39 V12" fill="none" stroke="#5c3a1e" stroke-width="2.5"/>
<path d="M14 14 H26 L25 24 H15Z" fill="#f2ead6"/>
<path d="M15 26 H25 L24 35 H16Z" fill="#e8d9b0"/>
<path d="M25 10 H39 L38 21 H26Z" fill="#f2ead6"/>
<path d="M26 23 H38 L37 33 H27Z" fill="#e8d9b0"/>
<path d="M38 14 H50 L49 24 H39Z" fill="#f2ead6"/>
<path d="M39 26 H49 L48 35 H40Z" fill="#e8d9b0"/>
<path d="M7 39 H57 L49 52 H15Z" fill="#8a5a2b"/>
<path d="M11 44 H53" fill="none" stroke="#e8d9b0" stroke-width="2.5"/>
<path d="M4 56 Q8 52 12 56 T20 56 T28 56 T36 56 T44 56 T52 56 T60 56" fill="none" stroke="#3e6b8f" stroke-width="2.5"/>
</g></svg>
