<svg xmlns="http://www.w3.org/2000/svg" viewBox="0 0 32 32" shape-rendering="crispEdges">
<rect x="16" y="1" width="4" height="1" fill="#2a2418"/>
<rect x="15" y="2" width="1" height="1" fill="#2a2418"/>
<rect x="16" y="2" width="4" height="1" fill="#a33b2e"/>
<rect x="20" y="2" width="1" height="1" fill="#2a2418"/>
<rect x="8" y="3" width="1" height="1" fill="#2a2418"/>
<rect x="15" y="3" width="5" height="1" fill="#2a2418"/>
<rect x="22" y="3" width="1" height="1" fill="#2a2418"/>
<rect x="5" y="4" width="3" height="1" fill="#2a2418"/>
<rect x="8" y="4" width="1" height="1" fill="#6b4320"/>
<rect x="9" y="4" width="6" height="1" fill="#2a2418"/>
<rect x="15" y="4" width="1" height="1" fill="#6b4320"/>
<rect x="16" y="4" width="6" height="1" fill="#2a2418"/>
<rect x="22" y="4" width="1" height="1" fill="#6b4320"/>
<rect x="23" y="4" width="3" height="1" fill="#2a2418"/>
<rect x="4" y="5" width="1" height="1" fill="#2a2418"/>
<rect x="5" y="5" width="1" height="1" fill="#bda87c"/>
<rect x="6" y="5" width="6" height="1" fill="#f2e6c8"/>
<rect x="12" y="5" width="1" height="1" fill="#bda87c"/>
<rect x="13" y="5" width="6" height="1" fill="#f2e6c8"/>
<rect x="19" y="5" width="1" height="1" fill="#bda87c"/>
<rect x="20" y="5" width="6" height="1" fill="#f2e6c8"/>
<rect x="26" y="5" width="1" height="1" fill="#2a2418"/>
<rect x="4" y="6" width="1" height="1" fill="#2a2418"/>
<rect x="5" y="6" width="1" height="1" fill="#bda87c"/>
<rect x="6" y="6" width="6" height="1" fill="#f2e6c8"/>
<rect x="12" y="6" width="1" height="1" fill="#bda87c"/>
<rect x="13" y="6" width="6" height="1" fill="#f2e6c8"/>
<rect x="19" y="6" width="1" height="1" fill="#bda87c"/>
<rect x="20" y="6" width="6" height="1" fill="#f2e6c8"/>
<rect x="26" y="6" width="1" height="1" fill="#2a2418"/>
<rect x="4" y="7" width="1" height="1" fill="#2a2418"/>
<rect x="5" y="7" width="1" height="1" fill="#bda87c"/>
<rect x="6" y="7" width="6" height="1" fill="#f2e6c8"/>
<rect x="12" y="7" width="1" height="1" fill="#bda87c"/>
<rect x="13" y="7" width="6" height="1" fill="#f2e6c8"/>
<rect x="19" y="7" width="1" height="1" fill="#bda87c"/>
<rect x="20" y="7" width="6" height="1" fill="#f2e6c8"/>
<rect x="26" y="7" width="1" height="1" fill="#2a2418"/>
<rect x="4" y="8" width="1" height="1" fill="#2a2418"/>
<rect x="5" y="8" width="1" height="1" fill="#bda87c"/>
<rect x="6" y="8" width="6" height="1" fill="#f2e6c8"/>
<rect x="12" y="8" width="1" height="1" fill="#bda87c"/>
<rect x="13" y="8" width="6" height="1" fill="#f2e6c8"/>
<rect x="19" y="8" width="1" height="1" fill="#bda87c"/>
<rect x="20" y="8" width="6" height="1" fill="#f2e6c8"/>
<rect x="26" y="8" width="1" height="1" fill="#2a2418"/>
<rect x="4" y="9" width="1" height="1" fill="#2a2418"/>
<rect x="5" y="9" width="1" height="1" fill="#bda87c"/>
<rect x="6" y="9" width="6" height="1" fill="#f2e6c8"/>
<rect x="12" y="9" width="1" height="1" fill="#bda87c"/>
<rect x="13" y="9" width="6" height="1" fill="#f2e6c8"/>
<rect x="19" y="9" width="1" height="1" fill="#bda87c"/>
<rect x="20" y="9" width="6" height="1" fill="#f2e6c8"/>
<rect x="26" y="9" width="1" height="1" fill="#2a2418"/>
<rect x="4" y="10" width="1" height="1" fill="#2a2418"/>
<rect x="5" y="10" width="1" height="1" fill="#bda87c"/>
<rect x="6" y="10" width="6" height="1" fill="#f2e6c8"/>
<rect x="12" y="10" width="1" height="1" fill="#bda87c"/>
<rect x="13" y="10" width="6" height="1" fill="#f2e6c8"/>
<rect x="19" y="10" width="1" height="1" fill="#bda87c"/>
<rect x="20" y="10" width="6" height="1" fill="#f2e6c8"/>
<rect x="26" y="10" width="1" height="1" fill="#2a2418"/>
<rect x="4" y="11" width="1" height="1" fill="#2a2418"/>
<rect x="5" y="11" width="1" height="1" fill="#bda87c"/>
<rect x="6" y="11" width="6" height="1" fill="#f2e6c8"/>
<rect x="12" y="11" width="1" height="1" fill="#bda87c"/>
<rect x="13" y="11" width="6" height="1" fill="#f2e6c8"/>
<rect x="19" y="11" width="1" height="1" fill="#bda87c"/>
<rect x="20" y="11" width="6" height="1" fill="#f2e6c8"/>
<rect x="26" y="11" width="1" height="1" fill="#2a2418"/>
<rect x="4" y="12" width="1" height="1" fill="#2a2418"/>
<rect x="5" y="12" width="1" height="1" fill="#bda87c"/>
<rect x="6" y="12" width="6" height="1" fill="#f2e6c8"/>
<rect x="12" y="12" width="1" height="1" fill="#bda87c"/>
<rect x="13" y="12" width="6" height="1" fill="#f2e6c8"/>
<rect x="19" y="12" width="1" height="1" fill="#bda87c"/>
<rect x="20" y="12" width="6" height="1" fill="#f2e6c8"/>
<rect x="26" y="12" width="1" height="1" fill="#2a2418"/>
<rect x="4" y="13" width="1" height="1" fill="#2a2418"/>
<rect x="5" y="13" width="1" height="1" fill="#bda87c"/>
<rect x="6" y="13" width="6" height="1" fill="#f2e6c8"/>
<rect x="12" y="13" width="1" height="1" fill="#bda87c"/>
<rect x="13" y="13" width="6" height="1" fill="#f2e6c8"/>
<rect x="19" y="13" width="1" height="1" fill="#bda87c"/>
<rect x="20" y="13" width="6" height="1" fill="#f2e6c8"/>
<rect x="26" y="13" width="1" height="1" fill="#2a2418"/>
<rect x="4" y="14" width="1" height="1" fill="#2a2418"/>
<rect x="5" y="14" width="1" height="1" fill="#bda87c"/>
<rect x="6" y="14" width="6" height="1" fill="#f2e6c8"/>
<rect x="12" y="14" width="1" height="1" fill="#bda87c"/>
<rect x="13" y="14" width="6" height="1" fill="#f2e6c8"/>
<rect x="19" y="14" width="1" height="1" fill="#bda87c"/>
<rect x="20" y="14" width="6" height="1" fill="#f2e6c8"/>
<rect x="26" y="14" width="1" height="1" fill="#2a2418"/>
<rect x="4" y="15" width="1" height="1" fill="#2a2418"/>
<rect x="5" y="15" width="1" height="1" fill="#bda87c"/>
<rect x="6" y="15" width="6" height="1" fill="#f2e6c8"/>
<rect x="12" y="15" width="1" height="1" fill="#bda87c"/>
<rect x="13" y="15" width="6" height="1" fill="#f2e6c8"/>
<rect x="19" y="15" width="1" height="1" fill="#bda87c"/>
<rect x="20" y="15" width="6" height="1" fill="#f2e6c8"/>
<rect x="26" y="15" width="1" height="1" fill="#2a2418"/>
<rect x="4" y="16" width="1" height="1" fill="#2a2418"/>
<rect x="5" y="16" width="1" height="1" fill="#bda87c"/>
<rect x="6" y="16" width="6" height="1" fill="#f2e6c8"/>
<rect x="12" y="16" width="1" height="1" fill="#bda87c"/>
<rect x="13" y="16" width="6" height="1" fill="#f2e6c8"/>
<rect x="19" y="16" width="1" height="1" fill="#bda87c"/>
<rect x="20" y="16" width="6" height="1" fill="#f2e6c8"/>
<rect x="26" y="16" width="1" height="1" fill="#2a2418"/>
<rect x="4" y="17" width="1" height="1" fill="#2a2418"/>
<rect x="5" y="17" width="1" height="1" fill="#bda87c"/>
<rect x="6" y="17" width="6" height="1" fill="#f2e6c8"/>
<rect x="12" y="17" width="1" height="1" fill="#bda87c"/>
<rect x="13" y="17" width="6" height="1" fill="#f2e6c8"/>
<rect x="19" y="17" width="1" height="1" fill="#bda87c"/>
<rect x="20" y="17" width="6" height="1" fill="#f2e6c8"/>
<rect x="26" y="17" width="1" height="1" fill="#2a2418"/>
<rect x="30" y="17" width="1" height="1" fill="#2a2418"/>
<rect x="4" y="18" width="1" height="1" fill="#2a2418"/>
<rect x="5" y="18" width="1" height="1" fill="#bda87c"/>
<rect x="6" y="18" width="6" height="1" fill="#f2e6c8"/>
<rect x="12" y="18" width="1" height="1" fill="#bda87c"/>
<rect x="13" y="18" width="6" height="1" fill="#f2e6c8"/>
<rect x="19" y="18" width="1" height="1" fill="#bda87c"/>
<rect x="20" y="18" width="6" height="1" fill="#f2e6c8"/>
<rect x="26" y="18" width="1" height="1" fill="#2a2418"/>
<rect x="29" y="18" width="1" height="1" fill="#2a2418"/>
<rect x="30" y="18" width="1" height="1" fill="#8a5a2b"/>
<rect x="31" y="18" width="1" height="1" fill="#2a2418"/>
<rect x="3" y="19" width="5" height="1" fill="#2a2418"/>
<rect x="8" y="19" width="1" height="1" fill="#6b4320"/>
<rect x="9" y="19" width="6" height="1" fill="#2a2418"/>
<rect x="15" y="19" width="1" height="1" fill="#6b4320"/>
<rect x="16" y="19" width="6" height="1" fill="#2a2418"/>
<rect x="22" y="19" width="1" height="1" fill="#6b4320"/>
<rect x="23" y="19" width="6" height="1" fill="#2a2418"/>
<rect x="29" y="19" width="1" height="1" fill="#8a5a2b"/>
<rect x="30" y="19" width="1" height="1" fill="#2a2418"/>
<rect x="2" y="20" width="1" height="1" fill="#2a2418"/>
<rect x="3" y="20" width="25" height="1" fill="#a9743c"/>
<rect x="28" y="20" width="1" height="1" fill="#8a5a2b"/>
<rect x="29" y="20" width="1" height="1" fill="#2a2418"/>
<rect x="2" y="21" width="1" height="1" fill="#2a2418"/>
<rect x="3" y="21" width="2" height="1" fill="#8a5a2b"/>
<rect x="5" y="21" width="21" height="1" fill="#b3822a"/>
<rect x="26" y="21" width="2" height="1" fill="#8a5a2b"/>
<rect x="28" y="21" width="1" height="1" fill="#2a2418"/>
<rect x="2" y="22" width="1" height="1" fill="#2a2418"/>
<rect x="3" y="22" width="25" height="1" fill="#8a5a2b"/>
<rect x="28" y="22" width="1" height="1" fill="#2a2418"/>
<rect x="2" y="23" width="1" height="1" fill="#2a2418"/>
<rect x="3" y="23" width="25" height="1" fill="#8a5a2b"/>
<rect x="28" y="23" width="1" height="1" fill="#2a2418"/>
<rect x="2" y="24" width="1" height="1" fill="#2a2418"/>
<rect x="3" y="24" width="25" height="1" fill="#8a5a2b"/>
<rect x="28" y="24" width="1" height="1" fill="#2a2418"/>
<rect x="1" y="25" width="2" height="1" fill="#2a2418"/>
<rect x="3" y="25" width="25" height="1" fill="#8a5a2b"/>
<rect x="28" y="25" width="3" height="1" fill="#2a2418"/>
<rect x="0" y="26" width="1" height="1" fill="#2a2418"/>
<rect x="1" y="26" width="30" height="1" fill="#2c4a66"/>
<rect x="31" y="26" width="1" height="1" fill="#2a2418"/>
<rect x="1" y="27" width="2" height="1" fill="#2a2418"/>
<rect x="3" y="27" width="6" height="1" fill="#47698c"/>
<rect x="9" y="27" width="4" height="1" fill="#2a2418"/>
<rect x="13" y="27" width="7" height="1" fill="#47698c"/>
<rect x="20" y="27" width="3" height="1" fill="#2a2418"/>
<rect x="23" y="27" width="7" height="1" fill="#47698c"/>
<rect x="30" y="27" width="1" height="1" fill="#2a2418"/>
<rect x="3" y="28" width="6" height="1" fill="#2a2418"/>
<rect x="13" y="28" width="7" height="1" fill="#2a2418"/>
<rect x="23" y="28" width="7" height="1" fill="#2a2418"/>
</svg>
