<svg xmlns="http://www.w3.org/2000/svg" viewBox="0 0 32 32" shape-rendering="crispEdges">
<rect x="10" y="3" width="7" height="1" fill="#2a2418"/>
<rect x="9" y="4" width="1" height="1" fill="#2a2418"/>
<rect x="10" y="4" width="7" height="1" fill="#e3b341"/>
<rect x="17" y="4" width="1" height="1" fill="#2a2418"/>
<rect x="20" y="4" width="9" height="1" fill="#2a2418"/>
<rect x="8" y="5" width="1" height="1" fill="#2a2418"/>
<rect x="9" y="5" width="3" height="1" fill="#e3b341"/>
<rect x="12" y="5" width="1" height="1" fill="#f4d477"/>
<rect x="13" y="5" width="1" height="1" fill="#f4f4ee"/>
<rect x="14" y="5" width="1" height="1" fill="#f4d477"/>
<rect x="15" y="5" width="3" height="1" fill="#e3b341"/>
<rect x="18" y="5" width="2" height="1" fill="#2a2418"/>
<rect x="20" y="5" width="9" height="1" fill="#c4c9cd"/>
<rect x="29" y="5" width="2" height="1" fill="#2a2418"/>
<rect x="8" y="6" width="1" height="1" fill="#2a2418"/>
<rect x="9" y="6" width="3" height="1" fill="#e3b341"/>
<rect x="12" y="6" width="3" height="1" fill="#f4d477"/>
<rect x="15" y="6" width="3" height="1" fill="#e3b341"/>
<rect x="18" y="6" width="13" height="1" fill="#9aa0a6"/>
<rect x="31" y="6" width="1" height="1" fill="#2a2418"/>
<rect x="8" y="7" width="1" height="1" fill="#2a2418"/>
<rect x="9" y="7" width="8" height="1" fill="#e3b341"/>
<rect x="17" y="7" width="1" height="1" fill="#9aa0a6"/>
<rect x="18" y="7" width="13" height="1" fill="#2a2418"/>
<rect x="31" y="7" width="1" height="1" fill="#9aa0a6"/>
<rect x="9" y="8" width="1" height="1" fill="#2a2418"/>
<rect x="10" y="8" width="6" height="1" fill="#e0af80"/>
<rect x="16" y="8" width="1" height="1" fill="#6f767d"/>
<rect x="17" y="8" width="1" height="1" fill="#2a2418"/>
<rect x="23" y="8" width="1" height="1" fill="#2a2418"/>
<rect x="24" y="8" width="1" height="1" fill="#a9743c"/>
<rect x="25" y="8" width="2" height="1" fill="#8a5a2b"/>
<rect x="27" y="8" width="1" height="1" fill="#2a2418"/>
<rect x="30" y="8" width="1" height="1" fill="#2a2418"/>
<rect x="31" y="8" width="1" height="1" fill="#6f767d"/>
<rect x="9" y="9" width="1" height="1" fill="#2a2418"/>
<rect x="10" y="9" width="6" height="1" fill="#e0af80"/>
<rect x="16" y="9" width="1" height="1" fill="#6f767d"/>
<rect x="17" y="9" width="1" height="1" fill="#2a2418"/>
<rect x="24" y="9" width="1" height="1" fill="#2a2418"/>
<rect x="25" y="9" width="2" height="1" fill="#8a5a2b"/>
<rect x="27" y="9" width="1" height="1" fill="#2a2418"/>
<rect x="30" y="9" width="1" height="1" fill="#2a2418"/>
<rect x="31" y="9" width="1" height="1" fill="#6f767d"/>
<rect x="9" y="10" width="1" height="1" fill="#2a2418"/>
<rect x="10" y="10" width="1" height="1" fill="#e0af80"/>
<rect x="11" y="10" width="1" height="1" fill="#2a2418"/>
<rect x="12" y="10" width="3" height="1" fill="#e0af80"/>
<rect x="15" y="10" width="1" height="1" fill="#2a2418"/>
<rect x="16" y="10" width="1" height="1" fill="#e0af80"/>
<rect x="17" y="10" width="1" height="1" fill="#2a2418"/>
<rect x="24" y="10" width="1" height="1" fill="#2a2418"/>
<rect x="25" y="10" width="2" height="1" fill="#8a5a2b"/>
<rect x="27" y="10" width="1" height="1" fill="#2a2418"/>
<rect x="31" y="10" width="1" height="1" fill="#2a2418"/>
<rect x="9" y="11" width="1" height="1" fill="#2a2418"/>
<rect x="10" y="11" width="7" height="1" fill="#e0af80"/>
<rect x="17" y="11" width="1" height="1" fill="#2a2418"/>
<rect x="24" y="11" width="1" height="1" fill="#2a2418"/>
<rect x="25" y="11" width="2" height="1" fill="#8a5a2b"/>
<rect x="27" y="11" width="1" height="1" fill="#2a2418"/>
<rect x="9" y="12" width="1" height="1" fill="#2a2418"/>
<rect x="10" y="12" width="7" height="1" fill="#e0af80"/>
<rect x="17" y="12" width="1" height="1" fill="#2a2418"/>
<rect x="23" y="12" width="1" height="1" fill="#2a2418"/>
<rect x="24" y="12" width="2" height="1" fill="#8a5a2b"/>
<rect x="26" y="12" width="1" height="1" fill="#2a2418"/>
<rect x="8" y="13" width="2" height="1" fill="#2a2418"/>
<rect x="10" y="13" width="1" height="1" fill="#e0af80"/>
<rect x="11" y="13" width="1" height="1" fill="#bd8a5c"/>
<rect x="12" y="13" width="3" height="1" fill="#e0af80"/>
<rect x="15" y="13" width="1" height="1" fill="#bd8a5c"/>
<rect x="16" y="13" width="1" height="1" fill="#e0af80"/>
<rect x="17" y="13" width="2" height="1" fill="#2a2418"/>
<rect x="23" y="13" width="1" height="1" fill="#2a2418"/>
<rect x="24" y="13" width="2" height="1" fill="#8a5a2b"/>
<rect x="26" y="13" width="1" height="1" fill="#2a2418"/>
<rect x="6" y="14" width="2" height="1" fill="#2a2418"/>
<rect x="8" y="14" width="2" height="1" fill="#a33b2e"/>
<rect x="10" y="14" width="1" height="1" fill="#3a3530"/>
<rect x="11" y="14" width="5" height="1" fill="#a33b2e"/>
<rect x="16" y="14" width="1" height="1" fill="#3a3530"/>
<rect x="17" y="14" width="2" height="1" fill="#a33b2e"/>
<rect x="19" y="14" width="2" height="1" fill="#2a2418"/>
<rect x="23" y="14" width="1" height="1" fill="#2a2418"/>
<rect x="24" y="14" width="2" height="1" fill="#8a5a2b"/>
<rect x="26" y="14" width="1" height="1" fill="#2a2418"/>
<rect x="5" y="15" width="1" height="1" fill="#2a2418"/>
<rect x="6" y="15" width="2" height="1" fill="#c25545"/>
<rect x="8" y="15" width="2" height="1" fill="#a33b2e"/>
<rect x="10" y="15" width="1" height="1" fill="#3a3530"/>
<rect x="11" y="15" width="5" height="1" fill="#a33b2e"/>
<rect x="16" y="15" width="1" height="1" fill="#3a3530"/>
<rect x="17" y="15" width="2" height="1" fill="#a33b2e"/>
<rect x="19" y="15" width="2" height="1" fill="#c25545"/>
<rect x="21" y="15" width="1" height="1" fill="#2a2418"/>
<rect x="23" y="15" width="1" height="1" fill="#2a2418"/>
<rect x="24" y="15" width="2" height="1" fill="#8a5a2b"/>
<rect x="26" y="15" width="1" height="1" fill="#2a2418"/>
<rect x="5" y="16" width="1" height="1" fill="#2a2418"/>
<rect x="6" y="16" width="2" height="1" fill="#c25545"/>
<rect x="8" y="16" width="2" height="1" fill="#a33b2e"/>
<rect x="10" y="16" width="1" height="1" fill="#3a3530"/>
<rect x="11" y="16" width="5" height="1" fill="#a33b2e"/>
<rect x="16" y="16" width="1" height="1" fill="#3a3530"/>
<rect x="17" y="16" width="2" height="1" fill="#a33b2e"/>
<rect x="19" y="16" width="2" height="1" fill="#c25545"/>
<rect x="21" y="16" width="1" height="1" fill="#2a2418"/>
<rect x="23" y="16" width="1" height="1" fill="#2a2418"/>
<rect x="24" y="16" width="2" height="1" fill="#8a5a2b"/>
<rect x="26" y="16" width="1" height="1" fill="#2a2418"/>
<rect x="5" y="17" width="1" height="1" fill="#2a2418"/>
<rect x="6" y="17" width="2" height="1" fill="#c25545"/>
<rect x="8" y="17" width="2" height="1" fill="#a33b2e"/>
<rect x="10" y="17" width="3" height="1" fill="#575049"/>
<rect x="13" y="17" width="4" height="1" fill="#3a3530"/>
<rect x="17" y="17" width="2" height="1" fill="#a33b2e"/>
<rect x="19" y="17" width="2" height="1" fill="#c25545"/>
<rect x="21" y="17" width="1" height="1" fill="#2a2418"/>
<rect x="23" y="17" width="1" height="1" fill="#2a2418"/>
<rect x="24" y="17" width="2" height="1" fill="#8a5a2b"/>
<rect x="26" y="17" width="1" height="1" fill="#2a2418"/>
<rect x="5" y="18" width="1" height="1" fill="#2a2418"/>
<rect x="6" y="18" width="2" height="1" fill="#c25545"/>
<rect x="8" y="18" width="2" height="1" fill="#a33b2e"/>
<rect x="10" y="18" width="3" height="1" fill="#575049"/>
<rect x="13" y="18" width="4" height="1" fill="#3a3530"/>
<rect x="17" y="18" width="2" height="1" fill="#a33b2e"/>
<rect x="19" y="18" width="2" height="1" fill="#c25545"/>
<rect x="21" y="18" width="1" height="1" fill="#2a2418"/>
<rect x="23" y="18" width="1" height="1" fill="#2a2418"/>
<rect x="24" y="18" width="2" height="1" fill="#8a5a2b"/>
<rect x="26" y="18" width="1" height="1" fill="#2a2418"/>
<rect x="5" y="19" width="1" height="1" fill="#2a2418"/>
<rect x="6" y="19" width="2" height="1" fill="#c25545"/>
<rect x="8" y="19" width="2" height="1" fill="#a33b2e"/>
<rect x="10" y="19" width="3" height="1" fill="#575049"/>
<rect x="13" y="19" width="4" height="1" fill="#3a3530"/>
<rect x="17" y="19" width="2" height="1" fill="#a33b2e"/>
<rect x="19" y="19" width="2" height="1" fill="#c25545"/>
<rect x="21" y="19" width="2" height="1" fill="#2a2418"/>
<rect x="23" y="19" width="2" height="1" fill="#8a5a2b"/>
<rect x="25" y="19" width="1" height="1" fill="#2a2418"/>
<rect x="5" y="20" width="1" height="1" fill="#2a2418"/>
<rect x="6" y="20" width="2" height="1" fill="#c25545"/>
<rect x="8" y="20" width="2" height="1" fill="#a33b2e"/>
<rect x="10" y="20" width="3" height="1" fill="#575049"/>
<rect x="13" y="20" width="4" height="1" fill="#3a3530"/>
<rect x="17" y="20" width="2" height="1" fill="#a33b2e"/>
<rect x="19" y="20" width="1" height="1" fill="#c25545"/>
<rect x="20" y="20" width="4" height="1" fill="#e0af80"/>
<rect x="24" y="20" width="1" height="1" fill="#8a5a2b"/>
<rect x="25" y="20" width="1" height="1" fill="#2a2418"/>
<rect x="5" y="21" width="1" height="1" fill="#2a2418"/>
<rect x="6" y="21" width="2" height="1" fill="#c25545"/>
<rect x="8" y="21" width="2" height="1" fill="#a33b2e"/>
<rect x="10" y="21" width="3" height="1" fill="#575049"/>
<rect x="13" y="21" width="4" height="1" fill="#3a3530"/>
<rect x="17" y="21" width="2" height="1" fill="#a33b2e"/>
<rect x="19" y="21" width="1" height="1" fill="#c25545"/>
<rect x="20" y="21" width="4" height="1" fill="#e0af80"/>
<rect x="24" y="21" width="1" height="1" fill="#8a5a2b"/>
<rect x="25" y="21" width="1" height="1" fill="#2a2418"/>
<rect x="5" y="22" width="1" height="1" fill="#2a2418"/>
<rect x="6" y="22" width="2" height="1" fill="#e0af80"/>
<rect x="8" y="22" width="2" height="1" fill="#a33b2e"/>
<rect x="10" y="22" width="3" height="1" fill="#575049"/>
<rect x="13" y="22" width="4" height="1" fill="#3a3530"/>
<rect x="17" y="22" width="2" height="1" fill="#a33b2e"/>
<rect x="19" y="22" width="5" height="1" fill="#e0af80"/>
<rect x="24" y="22" width="1" height="1" fill="#8a5a2b"/>
<rect x="25" y="22" width="1" height="1" fill="#2a2418"/>
<rect x="5" y="23" width="1" height="1" fill="#2a2418"/>
<rect x="6" y="23" width="2" height="1" fill="#e0af80"/>
<rect x="8" y="23" width="2" height="1" fill="#a33b2e"/>
<rect x="10" y="23" width="3" height="1" fill="#575049"/>
<rect x="13" y="23" width="4" height="1" fill="#3a3530"/>
<rect x="17" y="23" width="2" height="1" fill="#a33b2e"/>
<rect x="19" y="23" width="2" height="1" fill="#e0af80"/>
<rect x="21" y="23" width="4" height="1" fill="#2a2418"/>
<rect x="6" y="24" width="3" height="1" fill="#2a2418"/>
<rect x="9" y="24" width="3" height="1" fill="#3a3530"/>
<rect x="12" y="24" width="3" height="1" fill="#2a2418"/>
<rect x="15" y="24" width="3" height="1" fill="#3a3530"/>
<rect x="18" y="24" width="3" height="1" fill="#2a2418"/>
<rect x="8" y="25" width="1" height="1" fill="#2a2418"/>
<rect x="9" y="25" width="3" height="1" fill="#3a3530"/>
<rect x="12" y="25" width="1" height="1" fill="#2a2418"/>
<rect x="14" y="25" width="1" height="1" fill="#2a2418"/>
<rect x="15" y="25" width="3" height="1" fill="#3a3530"/>
<rect x="18" y="25" width="1" height="1" fill="#2a2418"/>
<rect x="8" y="26" width="1" height="1" fill="#2a2418"/>
<rect x="9" y="26" width="3" height="1" fill="#3a3530"/>
<rect x="12" y="26" width="1" height="1" fill="#2a2418"/>
<rect x="14" y="26" width="1" height="1" fill="#2a2418"/>
<rect x="15" y="26" width="3" height="1" fill="#3a3530"/>
<rect x="18" y="26" width="1" height="1" fill="#2a2418"/>
<rect x="8" y="27" width="1" height="1" fill="#2a2418"/>
<rect x="9" y="27" width="3" height="1" fill="#3a3530"/>
<rect x="12" y="27" width="1" height="1" fill="#2a2418"/>
<rect x="14" y="27" width="1" height="1" fill="#2a2418"/>
<rect x="15" y="27" width="3" height="1" fill="#3a3530"/>
<rect x="18" y="27" width="1" height="1" fill="#2a2418"/>
<rect x="8" y="28" width="1" height="1" fill="#2a2418"/>
<rect x="9" y="28" width="3" height="1" fill="#3a3530"/>
<rect x="12" y="28" width="1" height="1" fill="#2a2418"/>
<rect x="14" y="28" width="1" height="1" fill="#2a2418"/>
<rect x="15" y="28" width="3" height="1" fill="#3a3530"/>
<rect x="18" y="28" width="1" height="1" fill="#2a2418"/>
<rect x="7" y="29" width="1" height="1" fill="#2a2418"/>
<rect x="8" y="29" width="4" height="1" fill="#3a3530"/>
<rect x="12" y="29" width="1" height="1" fill="#2a2418"/>
<rect x="14" y="29" width="1" height="1" fill="#2a2418"/>
<rect x="15" y="29" width="4" height="1" fill="#3a3530"/>
<rect x="19" y="29" width="1" height="1" fill="#2a2418"/>
<rect x="7" y="30" width="1" height="1" fill="#2a2418"/>
<rect x="8" y="30" width="4" height="1" fill="#3a3530"/>
<rect x="12" y="30" width="1" height="1" fill="#2a2418"/>
<rect x="14" y="30" width="1" height="1" fill="#2a2418"/>
<rect x="15" y="30" width="4" height="1" fill="#3a3530"/>
<rect x="19" y="30" width="1" height="1" fill="#2a2418"/>
<rect x="8" y="31" width="4" height="1" fill="#2a2418"/>
<rect x="15" y="31" width="4" height="1" fill="#2a2418"/>
</svg>
