<svg xmlns="http://www.w3.org/2000/svg" viewBox="0 0 32 32" shape-rendering="crispEdges">
<rect x="0" y="0" width="4" height="1" fill="#d8c888"/>
<rect x="4" y="0" width="1" height="1" fill="#beb078"/>
<rect x="5" y="0" width="12" height="1" fill="#d8c888"/>
<rect x="17" y="0" width="1" height="1" fill="#beb078"/>
<rect x="18" y="0" width="14" height="1" fill="#d8c888"/>
<rect x="0" y="1" width="6" height="1" fill="#d8c888"/>
<rect x="6" y="1" width="1" height="1" fill="#beb078"/>
<rect x="7" y="1" width="25" height="1" fill="#d8c888"/>
<rect x="0" y="2" width="29" height="1" fill="#d8c888"/>
<rect x="29" y="2" width="1" height="1" fill="#f2e098"/>
<rect x="30" y="2" width="2" height="1" fill="#d8c888"/>
<rect x="0" y="3" width="13" height="1" fill="#d8c888"/>
<rect x="13" y="3" width="4" height="1" fill="#beb078"/>
<rect x="17" y="3" width="15" height="1" fill="#d8c888"/>
<rect x="0" y="4" width="1" height="1" fill="#d8c888"/>
<rect x="1" y="4" width="4" height="1" fill="#beb078"/>
<rect x="5" y="4" width="8" height="1" fill="#d8c888"/>
<rect x="13" y="4" width="1" height="1" fill="#beb078"/>
<rect x="14" y="4" width="9" height="1" fill="#d8c888"/>
<rect x="23" y="4" width="4" height="1" fill="#beb078"/>
<rect x="27" y="4" width="5" height="1" fill="#d8c888"/>
<rect x="0" y="5" width="1" height="1" fill="#d8c888"/>
<rect x="1" y="5" width="1" height="1" fill="#beb078"/>
<rect x="2" y="5" width="30" height="1" fill="#d8c888"/>
<rect x="0" y="6" width="32" height="1" fill="#d8c888"/>
<rect x="0" y="7" width="14" height="1" fill="#d8c888"/>
<rect x="14" y="7" width="1" height="1" fill="#f2e098"/>
<rect x="15" y="7" width="2" height="1" fill="#d8c888"/>
<rect x="17" y="7" width="1" height="1" fill="#f2e098"/>
<rect x="18" y="7" width="1" height="1" fill="#d8c888"/>
<rect x="19" y="7" width="1" height="1" fill="#beb078"/>
<rect x="20" y="7" width="12" height="1" fill="#d8c888"/>
<rect x="0" y="8" width="2" height="1" fill="#d8c888"/>
<rect x="2" y="8" width="1" height="1" fill="#f2e098"/>
<rect x="3" y="8" width="29" height="1" fill="#d8c888"/>
<rect x="0" y="9" width="32" height="1" fill="#d8c888"/>
<rect x="0" y="10" width="4" height="1" fill="#d8c888"/>
<rect x="4" y="10" width="1" height="1" fill="#beb078"/>
<rect x="5" y="10" width="3" height="1" fill="#d8c888"/>
<rect x="8" y="10" width="1" height="1" fill="#f2e098"/>
<rect x="9" y="10" width="23" height="1" fill="#d8c888"/>
<rect x="0" y="11" width="5" height="1" fill="#d8c888"/>
<rect x="5" y="11" width="4" height="1" fill="#beb078"/>
<rect x="9" y="11" width="8" height="1" fill="#d8c888"/>
<rect x="17" y="11" width="4" height="1" fill="#beb078"/>
<rect x="21" y="11" width="11" height="1" fill="#d8c888"/>
<rect x="0" y="12" width="1" height="1" fill="#beb078"/>
<rect x="1" y="12" width="28" height="1" fill="#d8c888"/>
<rect x="29" y="12" width="3" height="1" fill="#beb078"/>
<rect x="0" y="13" width="3" height="1" fill="#d8c888"/>
<rect x="3" y="13" width="1" height="1" fill="#beb078"/>
<rect x="4" y="13" width="28" height="1" fill="#d8c888"/>
<rect x="0" y="14" width="11" height="1" fill="#d8c888"/>
<rect x="11" y="14" width="1" height="1" fill="#beb078"/>
<rect x="12" y="14" width="7" height="1" fill="#d8c888"/>
<rect x="19" y="14" width="1" height="1" fill="#beb078"/>
<rect x="20" y="14" width="12" height="1" fill="#d8c888"/>
<rect x="0" y="15" width="32" height="1" fill="#d8c888"/>
<rect x="0" y="16" width="32" height="1" fill="#d8c888"/>
<rect x="0" y="17" width="17" height="1" fill="#d8c888"/>
<rect x="17" y="17" width="1" height="1" fill="#beb078"/>
<rect x="18" y="17" width="14" height="1" fill="#d8c888"/>
<rect x="0" y="18" width="6" height="1" fill="#d8c888"/>
<rect x="6" y="18" width="1" height="1" fill="#beb078"/>
<rect x="7" y="18" width="6" height="1" fill="#d8c888"/>
<rect x="13" y="18" width="1" height="1" fill="#beb078"/>
<rect x="14" y="18" width="9" height="1" fill="#d8c888"/>
<rect x="23" y="18" width="1" height="1" fill="#f2e098"/>
<rect x="24" y="18" width="8" height="1" fill="#d8c888"/>
<rect x="0" y="19" width="5" height="1" fill="#beb078"/>
<rect x="5" y="19" width="27" height="1" fill="#d8c888"/>
<rect x="0" y="20" width="11" height="1" fill="#d8c888"/>
<rect x="11" y="20" width="4" height="1" fill="#beb078"/>
<rect x="15" y="20" width="8" height="1" fill="#d8c888"/>
<rect x="23" y="20" width="4" height="1" fill="#beb078"/>
<rect x="27" y="20" width="5" height="1" fill="#d8c888"/>
<rect x="0" y="21" width="22" height="1" fill="#d8c888"/>
<rect x="22" y="21" width="1" height="1" fill="#beb078"/>
<rect x="23" y="21" width="9" height="1" fill="#d8c888"/>
<rect x="0" y="22" width="32" height="1" fill="#d8c888"/>
<rect x="0" y="23" width="32" height="1" fill="#d8c888"/>
<rect x="0" y="24" width="20" height="1" fill="#d8c888"/>
<rect x="20" y="24" width="1" height="1" fill="#beb078"/>
<rect x="21" y="24" width="11" height="1" fill="#d8c888"/>
<rect x="0" y="25" width="32" height="1" fill="#d8c888"/>
<rect x="0" y="26" width="17" height="1" fill="#d8c888"/>
<rect x="17" y="26" width="1" height="1" fill="#f2e098"/>
<rect x="18" y="26" width="14" height="1" fill="#d8c888"/>
<rect x="0" y="27" width="1" height="1" fill="#beb078"/>
<rect x="1" y="27" width="31" height="1" fill="#d8c888"/>
<rect x="0" y="28" width="4" height="1" fill="#d8c888"/>
<rect x="4" y="28" width="4" height="1" fill="#beb078"/>
<rect x="8" y="28" width="8" height="1" fill="#d8c888"/>
<rect x="16" y="28" width="4" height="1" fill="#beb078"/>
<rect x="20" y="28" width="7" height="1" fill="#d8c888"/>
<rect x="27" y="28" width="4" height="1" fill="#beb078"/>
<rect x="31" y="28" width="1" height="1" fill="#d8c888"/>
<rect x="0" y="29" width="22" height="1" fill="#d8c888"/>
<rect x="22" y="29" width="1" height="1" fill="#beb078"/>
<rect x="23" y="29" width="9" height="1" fill="#d8c888"/>
<rect x="0" y="30" width="19" height="1" fill="#d8c888"/>
<rect x="19" y="30" width="1" height="1" fill="#beb078"/>
<rect x="20" y="30" width="12" height="1" fill="#d8c888"/>
<rect x="0" y="31" width="32" height="1" fill="#d8c888"/>
</svg>
