<svg xmlns="http://www.w3.org/2000/svg" viewBox="0 0 32 32" shape-rendering="crispEdges">
<rect x="0" y="0" width="31" height="1" fill="#9a8a68"/>
<rect x="31" y="0" width="1" height="1" fill="#88795c"/>
<rect x="0" y="1" width="7" height="1" fill="#9a8a68"/>
<rect x="7" y="1" width="1" height="1" fill="#88795c"/>
<rect x="8" y="1" width="1" height="1" fill="#ac9b74"/>
<rect x="9" y="1" width="23" height="1" fill="#9a8a68"/>
<rect x="0" y="2" width="2" height="1" fill="#9a8a68"/>
<rect x="2" y="2" width="1" height="1" fill="#ac9b74"/>
<rect x="3" y="2" width="29" height="1" fill="#9a8a68"/>
<rect x="0" y="3" width="7" height="1" fill="#9a8a68"/>
<rect x="7" y="3" width="1" height="1" fill="#ac9b74"/>
<rect x="8" y="3" width="12" height="1" fill="#9a8a68"/>
<rect x="20" y="3" width="1" height="1" fill="#75694f"/>
<rect x="21" y="3" width="11" height="1" fill="#9a8a68"/>
<rect x="0" y="4" width="4" height="1" fill="#9a8a68"/>
<rect x="4" y="4" width="1" height="1" fill="#ac9b74"/>
<rect x="5" y="4" width="3" height="1" fill="#9a8a68"/>
<rect x="8" y="4" width="1" height="1" fill="#ac9b74"/>
<rect x="9" y="4" width="9" height="1" fill="#9a8a68"/>
<rect x="18" y="4" width="2" height="1" fill="#75694f"/>
<rect x="20" y="4" width="11" height="1" fill="#9a8a68"/>
<rect x="31" y="4" width="1" height="1" fill="#88795c"/>
<rect x="0" y="5" width="20" height="1" fill="#9a8a68"/>
<rect x="20" y="5" width="1" height="1" fill="#88795c"/>
<rect x="21" y="5" width="11" height="1" fill="#9a8a68"/>
<rect x="0" y="6" width="9" height="1" fill="#9a8a68"/>
<rect x="9" y="6" width="1" height="1" fill="#88795c"/>
<rect x="10" y="6" width="13" height="1" fill="#9a8a68"/>
<rect x="23" y="6" width="1" height="1" fill="#88795c"/>
<rect x="24" y="6" width="8" height="1" fill="#9a8a68"/>
<rect x="0" y="7" width="32" height="1" fill="#9a8a68"/>
<rect x="0" y="8" width="14" height="1" fill="#9a8a68"/>
<rect x="14" y="8" width="1" height="1" fill="#75694f"/>
<rect x="15" y="8" width="2" height="1" fill="#9a8a68"/>
<rect x="17" y="8" width="1" height="1" fill="#75694f"/>
<rect x="18" y="8" width="14" height="1" fill="#9a8a68"/>
<rect x="0" y="9" width="12" height="1" fill="#9a8a68"/>
<rect x="12" y="9" width="2" height="1" fill="#75694f"/>
<rect x="14" y="9" width="1" height="1" fill="#9a8a68"/>
<rect x="15" y="9" width="2" height="1" fill="#75694f"/>
<rect x="17" y="9" width="13" height="1" fill="#9a8a68"/>
<rect x="30" y="9" width="1" height="1" fill="#75694f"/>
<rect x="31" y="9" width="1" height="1" fill="#9a8a68"/>
<rect x="0" y="10" width="5" height="1" fill="#9a8a68"/>
<rect x="5" y="10" width="1" height="1" fill="#88795c"/>
<rect x="6" y="10" width="5" height="1" fill="#9a8a68"/>
<rect x="11" y="10" width="1" height="1" fill="#88795c"/>
<rect x="12" y="10" width="16" height="1" fill="#9a8a68"/>
<rect x="28" y="10" width="2" height="1" fill="#75694f"/>
<rect x="30" y="10" width="2" height="1" fill="#9a8a68"/>
<rect x="0" y="11" width="32" height="1" fill="#9a8a68"/>
<rect x="0" y="12" width="24" height="1" fill="#9a8a68"/>
<rect x="24" y="12" width="1" height="1" fill="#88795c"/>
<rect x="25" y="12" width="7" height="1" fill="#9a8a68"/>
<rect x="0" y="13" width="25" height="1" fill="#9a8a68"/>
<rect x="25" y="13" width="1" height="1" fill="#75694f"/>
<rect x="26" y="13" width="6" height="1" fill="#9a8a68"/>
<rect x="0" y="14" width="1" height="1" fill="#75694f"/>
<rect x="1" y="14" width="22" height="1" fill="#9a8a68"/>
<rect x="23" y="14" width="2" height="1" fill="#75694f"/>
<rect x="25" y="14" width="7" height="1" fill="#9a8a68"/>
<rect x="0" y="15" width="1" height="1" fill="#ac9b74"/>
<rect x="1" y="15" width="29" height="1" fill="#9a8a68"/>
<rect x="30" y="15" width="2" height="1" fill="#75694f"/>
<rect x="0" y="16" width="28" height="1" fill="#9a8a68"/>
<rect x="28" y="16" width="1" height="1" fill="#ac9b74"/>
<rect x="29" y="16" width="1" height="1" fill="#9a8a68"/>
<rect x="30" y="16" width="1" height="1" fill="#ac9b74"/>
<rect x="31" y="16" width="1" height="1" fill="#9a8a68"/>
<rect x="0" y="17" width="26" height="1" fill="#9a8a68"/>
<rect x="26" y="17" width="1" height="1" fill="#ac9b74"/>
<rect x="27" y="17" width="5" height="1" fill="#9a8a68"/>
<rect x="0" y="18" width="17" height="1" fill="#9a8a68"/>
<rect x="17" y="18" width="1" height="1" fill="#ac9b74"/>
<rect x="18" y="18" width="14" height="1" fill="#9a8a68"/>
<rect x="0" y="19" width="20" height="1" fill="#9a8a68"/>
<rect x="20" y="19" width="1" height="1" fill="#75694f"/>
<rect x="21" y="19" width="11" height="1" fill="#9a8a68"/>
<rect x="0" y="20" width="7" height="1" fill="#9a8a68"/>
<rect x="7" y="20" width="1" height="1" fill="#ac9b74"/>
<rect x="8" y="20" width="10" height="1" fill="#9a8a68"/>
<rect x="18" y="20" width="2" height="1" fill="#75694f"/>
<rect x="20" y="20" width="7" height="1" fill="#9a8a68"/>
<rect x="27" y="20" width="1" height="1" fill="#88795c"/>
<rect x="28" y="20" width="4" height="1" fill="#9a8a68"/>
<rect x="0" y="21" width="14" height="1" fill="#9a8a68"/>
<rect x="14" y="21" width="1" height="1" fill="#ac9b74"/>
<rect x="15" y="21" width="17" height="1" fill="#9a8a68"/>
<rect x="0" y="22" width="2" height="1" fill="#9a8a68"/>
<rect x="2" y="22" width="1" height="1" fill="#88795c"/>
<rect x="3" y="22" width="4" height="1" fill="#9a8a68"/>
<rect x="7" y="22" width="1" height="1" fill="#88795c"/>
<rect x="8" y="22" width="24" height="1" fill="#9a8a68"/>
<rect x="0" y="23" width="18" height="1" fill="#9a8a68"/>
<rect x="18" y="23" width="1" height="1" fill="#ac9b74"/>
<rect x="19" y="23" width="9" height="1" fill="#9a8a68"/>
<rect x="28" y="23" width="1" height="1" fill="#ac9b74"/>
<rect x="29" y="23" width="3" height="1" fill="#9a8a68"/>
<rect x="0" y="24" width="18" height="1" fill="#9a8a68"/>
<rect x="18" y="24" width="1" height="1" fill="#ac9b74"/>
<rect x="19" y="24" width="13" height="1" fill="#9a8a68"/>
<rect x="0" y="25" width="3" height="1" fill="#9a8a68"/>
<rect x="3" y="25" width="1" height="1" fill="#ac9b74"/>
<rect x="4" y="25" width="7" height="1" fill="#9a8a68"/>
<rect x="11" y="25" width="1" height="1" fill="#88795c"/>
<rect x="12" y="25" width="16" height="1" fill="#9a8a68"/>
<rect x="28" y="25" width="1" height="1" fill="#88795c"/>
<rect x="29" y="25" width="3" height="1" fill="#9a8a68"/>
<rect x="0" y="26" width="1" height="1" fill="#88795c"/>
<rect x="1" y="26" width="3" height="1" fill="#9a8a68"/>
<rect x="4" y="26" width="1" height="1" fill="#88795c"/>
<rect x="5" y="26" width="19" height="1" fill="#9a8a68"/>
<rect x="24" y="26" width="1" height="1" fill="#88795c"/>
<rect x="25" y="26" width="1" height="1" fill="#9a8a68"/>
<rect x="26" y="26" width="1" height="1" fill="#88795c"/>
<rect x="27" y="26" width="3" height="1" fill="#9a8a68"/>
<rect x="30" y="26" width="1" height="1" fill="#75694f"/>
<rect x="31" y="26" width="1" height="1" fill="#9a8a68"/>
<rect x="0" y="27" width="28" height="1" fill="#9a8a68"/>
<rect x="28" y="27" width="2" height="1" fill="#75694f"/>
<rect x="30" y="27" width="2" height="1" fill="#9a8a68"/>
<rect x="0" y="28" width="9" height="1" fill="#9a8a68"/>
<rect x="9" y="28" width="1" height="1" fill="#75694f"/>
<rect x="10" y="28" width="13" height="1" fill="#9a8a68"/>
<rect x="23" y="28" width="1" height="1" fill="#ac9b74"/>
<rect x="24" y="28" width="4" height="1" fill="#9a8a68"/>
<rect x="28" y="28" width="1" height="1" fill="#75694f"/>
<rect x="29" y="28" width="3" height="1" fill="#9a8a68"/>
<rect x="0" y="29" width="7" height="1" fill="#9a8a68"/>
<rect x="7" y="29" width="2" height="1" fill="#75694f"/>
<rect x="9" y="29" width="14" height="1" fill="#9a8a68"/>
<rect x="23" y="29" width="1" height="1" fill="#75694f"/>
<rect x="24" y="29" width="2" height="1" fill="#9a8a68"/>
<rect x="26" y="29" width="2" height="1" fill="#75694f"/>
<rect x="28" y="29" width="4" height="1" fill="#9a8a68"/>
<rect x="0" y="30" width="1" height="1" fill="#9a8a68"/>
<rect x="1" y="30" width="1" height="1" fill="#88795c"/>
<rect x="2" y="30" width="4" height="1" fill="#9a8a68"/>
<rect x="6" y="30" width="1" height="1" fill="#88795c"/>
<rect x="7" y="30" width="10" height="1" fill="#9a8a68"/>
<rect x="17" y="30" width="1" height="1" fill="#ac9b74"/>
<rect x="18" y="30" width="3" height="1" fill="#9a8a68"/>
<rect x="21" y="30" width="2" height="1" fill="#75694f"/>
<rect x="23" y="30" width="9" height="1" fill="#9a8a68"/>
<rect x="0" y="31" width="3" height="1" fill="#9a8a68"/>
<rect x="3" y="31" width="1" height="1" fill="#88795c"/>
<rect x="4" y="31" width="28" height="1" fill="#9a8a68"/>
</svg>
