<svg xmlns="http://www.w3.org/2000/svg" viewBox="0 0 32 32" shape-rendering="crispEdges">
<rect x="21" y="3" width="2" height="1" fill="#2a2418"/>
<rect x="20" y="4" width="1" height="1" fill="#2a2418"/>
<rect x="21" y="4" width="1" height="1" fill="#8a5a2b"/>
<rect x="22" y="4" width="1" height="1" fill="#a9743c"/>
<rect x="23" y="4" width="1" height="1" fill="#2a2418"/>
<rect x="20" y="5" width="1" height="1" fill="#2a2418"/>
<rect x="21" y="5" width="3" height="1" fill="#8a5a2b"/>
<rect x="24" y="5" width="1" height="1" fill="#2a2418"/>
<rect x="20" y="6" width="1" height="1" fill="#2a2418"/>
<rect x="21" y="6" width="3" height="1" fill="#8a5a2b"/>
<rect x="24" y="6" width="1" height="1" fill="#2a2418"/>
<rect x="20" y="7" width="1" height="1" fill="#2a2418"/>
<rect x="21" y="7" width="3" height="1" fill="#8a5a2b"/>
<rect x="24" y="7" width="1" height="1" fill="#2a2418"/>
<rect x="19" y="8" width="1" height="1" fill="#2a2418"/>
<rect x="20" y="8" width="3" height="1" fill="#6b4320"/>
<rect x="23" y="8" width="1" height="1" fill="#2a2418"/>
<rect x="19" y="9" width="1" height="1" fill="#2a2418"/>
<rect x="20" y="9" width="3" height="1" fill="#6b4320"/>
<rect x="23" y="9" width="1" height="1" fill="#2a2418"/>
<rect x="19" y="10" width="1" height="1" fill="#2a2418"/>
<rect x="20" y="10" width="3" height="1" fill="#6b4320"/>
<rect x="23" y="10" width="1" height="1" fill="#2a2418"/>
<rect x="20" y="11" width="1" height="1" fill="#2a2418"/>
<rect x="21" y="11" width="1" height="1" fill="#8a5a2b"/>
<rect x="22" y="11" width="1" height="1" fill="#a9743c"/>
<rect x="23" y="11" width="1" height="1" fill="#2a2418"/>
<rect x="20" y="12" width="1" height="1" fill="#2a2418"/>
<rect x="21" y="12" width="1" height="1" fill="#8a5a2b"/>
<rect x="22" y="12" width="1" height="1" fill="#a9743c"/>
<rect x="23" y="12" width="1" height="1" fill="#2a2418"/>
<rect x="20" y="13" width="1" height="1" fill="#2a2418"/>
<rect x="21" y="13" width="1" height="1" fill="#8a5a2b"/>
<rect x="22" y="13" width="1" height="1" fill="#a9743c"/>
<rect x="23" y="13" width="1" height="1" fill="#2a2418"/>
<rect x="20" y="14" width="1" height="1" fill="#2a2418"/>
<rect x="21" y="14" width="1" height="1" fill="#8a5a2b"/>
<rect x="22" y="14" width="1" height="1" fill="#a9743c"/>
<rect x="23" y="14" width="1" height="1" fill="#2a2418"/>
<rect x="6" y="15" width="15" height="1" fill="#2a2418"/>
<rect x="21" y="15" width="1" height="1" fill="#8a5a2b"/>
<rect x="22" y="15" width="1" height="1" fill="#a9743c"/>
<rect x="23" y="15" width="1" height="1" fill="#2a2418"/>
<rect x="5" y="16" width="1" height="1" fill="#2a2418"/>
<rect x="6" y="16" width="17" height="1" fill="#a9743c"/>
<rect x="23" y="16" width="1" height="1" fill="#2a2418"/>
<rect x="5" y="17" width="1" height="1" fill="#2a2418"/>
<rect x="6" y="17" width="17" height="1" fill="#8a5a2b"/>
<rect x="23" y="17" width="1" height="1" fill="#2a2418"/>
<rect x="5" y="18" width="1" height="1" fill="#2a2418"/>
<rect x="6" y="18" width="17" height="1" fill="#8a5a2b"/>
<rect x="23" y="18" width="1" height="1" fill="#2a2418"/>
<rect x="6" y="19" width="1" height="1" fill="#2a2418"/>
<rect x="7" y="19" width="1" height="1" fill="#8a5a2b"/>
<rect x="8" y="19" width="1" height="1" fill="#6b4320"/>
<rect x="9" y="19" width="12" height="1" fill="#2a2418"/>
<rect x="21" y="19" width="1" height="1" fill="#8a5a2b"/>
<rect x="22" y="19" width="1" height="1" fill="#a9743c"/>
<rect x="23" y="19" width="1" height="1" fill="#2a2418"/>
<rect x="6" y="20" width="1" height="1" fill="#2a2418"/>
<rect x="7" y="20" width="1" height="1" fill="#8a5a2b"/>
<rect x="8" y="20" width="1" height="1" fill="#6b4320"/>
<rect x="9" y="20" width="1" height="1" fill="#2a2418"/>
<rect x="20" y="20" width="1" height="1" fill="#2a2418"/>
<rect x="21" y="20" width="1" height="1" fill="#8a5a2b"/>
<rect x="22" y="20" width="1" height="1" fill="#a9743c"/>
<rect x="23" y="20" width="1" height="1" fill="#2a2418"/>
<rect x="6" y="21" width="1" height="1" fill="#2a2418"/>
<rect x="7" y="21" width="1" height="1" fill="#8a5a2b"/>
<rect x="8" y="21" width="1" height="1" fill="#6b4320"/>
<rect x="9" y="21" width="1" height="1" fill="#2a2418"/>
<rect x="20" y="21" width="1" height="1" fill="#2a2418"/>
<rect x="21" y="21" width="1" height="1" fill="#8a5a2b"/>
<rect x="22" y="21" width="1" height="1" fill="#a9743c"/>
<rect x="23" y="21" width="1" height="1" fill="#2a2418"/>
<rect x="6" y="22" width="1" height="1" fill="#2a2418"/>
<rect x="7" y="22" width="1" height="1" fill="#8a5a2b"/>
<rect x="8" y="22" width="1" height="1" fill="#6b4320"/>
<rect x="9" y="22" width="12" height="1" fill="#2a2418"/>
<rect x="21" y="22" width="1" height="1" fill="#8a5a2b"/>
<rect x="22" y="22" width="1" height="1" fill="#a9743c"/>
<rect x="23" y="22" width="1" height="1" fill="#2a2418"/>
<rect x="6" y="23" width="1" height="1" fill="#2a2418"/>
<rect x="7" y="23" width="1" height="1" fill="#8a5a2b"/>
<rect x="8" y="23" width="14" height="1" fill="#6b4320"/>
<rect x="22" y="23" width="1" height="1" fill="#a9743c"/>
<rect x="23" y="23" width="1" height="1" fill="#2a2418"/>
<rect x="6" y="24" width="1" height="1" fill="#2a2418"/>
<rect x="7" y="24" width="1" height="1" fill="#8a5a2b"/>
<rect x="8" y="24" width="1" height="1" fill="#6b4320"/>
<rect x="9" y="24" width="12" height="1" fill="#2a2418"/>
<rect x="21" y="24" width="1" height="1" fill="#8a5a2b"/>
<rect x="22" y="24" width="1" height="1" fill="#a9743c"/>
<rect x="23" y="24" width="1" height="1" fill="#2a2418"/>
<rect x="6" y="25" width="1" height="1" fill="#2a2418"/>
<rect x="7" y="25" width="1" height="1" fill="#8a5a2b"/>
<rect x="8" y="25" width="1" height="1" fill="#6b4320"/>
<rect x="9" y="25" width="1" height="1" fill="#2a2418"/>
<rect x="20" y="25" width="1" height="1" fill="#2a2418"/>
<rect x="21" y="25" width="1" height="1" fill="#8a5a2b"/>
<rect x="22" y="25" width="1" height="1" fill="#a9743c"/>
<rect x="23" y="25" width="1" height="1" fill="#2a2418"/>
<rect x="6" y="26" width="1" height="1" fill="#2a2418"/>
<rect x="7" y="26" width="1" height="1" fill="#8a5a2b"/>
<rect x="8" y="26" width="1" height="1" fill="#6b4320"/>
<rect x="9" y="26" width="1" height="1" fill="#2a2418"/>
<rect x="20" y="26" width="1" height="1" fill="#2a2418"/>
<rect x="21" y="26" width="1" height="1" fill="#8a5a2b"/>
<rect x="22" y="26" width="1" height="1" fill="#a9743c"/>
<rect x="23" y="26" width="1" height="1" fill="#2a2418"/>
<rect x="6" y="27" width="1" height="1" fill="#2a2418"/>
<rect x="7" y="27" width="1" height="1" fill="#8a5a2b"/>
<rect x="8" y="27" width="1" height="1" fill="#6b4320"/>
<rect x="9" y="27" width="1" height="1" fill="#2a2418"/>
<rect x="20" y="27" width="1" height="1" fill="#2a2418"/>
<rect x="21" y="27" width="1" height="1" fill="#8a5a2b"/>
<rect x="22" y="27" width="1" height="1" fill="#a9743c"/>
<rect x="23" y="27" width="1" height="1" fill="#2a2418"/>
<rect x="7" y="28" width="2" height="1" fill="#2a2418"/>
<rect x="21" y="28" width="2" height="1" fill="#2a2418"/>
</svg>
