<svg xmlns="http://www.w3.org/2000/svg" viewBox="0 0 32 32" shape-rendering="crispEdges">
<rect x="3" y="6" width="26" height="1" fill="#2a2418"/>
<rect x="2" y="7" width="1" height="1" fill="#2a2418"/>
<rect x="3" y="7" width="1" height="1" fill="#3a3530"/>
<rect x="4" y="7" width="24" height="1" fill="#575049"/>
<rect x="28" y="7" width="1" height="1" fill="#3a3530"/>
<rect x="29" y="7" width="1" height="1" fill="#2a2418"/>
<rect x="2" y="8" width="1" height="1" fill="#2a2418"/>
<rect x="3" y="8" width="26" height="1" fill="#3a3530"/>
<rect x="29" y="8" width="1" height="1" fill="#2a2418"/>
<rect x="3" y="9" width="1" height="1" fill="#2a2418"/>
<rect x="4" y="9" width="24" height="1" fill="#a33b2e"/>
<rect x="28" y="9" width="1" height="1" fill="#2a2418"/>
<rect x="3" y="10" width="1" height="1" fill="#2a2418"/>
<rect x="4" y="10" width="3" height="1" fill="#a33b2e"/>
<rect x="7" y="10" width="2" height="1" fill="#7d2c22"/>
<rect x="9" y="10" width="1" height="1" fill="#2a2418"/>
<rect x="10" y="10" width="12" height="1" fill="#7d2c22"/>
<rect x="22" y="10" width="1" height="1" fill="#2a2418"/>
<rect x="23" y="10" width="5" height="1" fill="#7d2c22"/>
<rect x="28" y="10" width="1" height="1" fill="#2a2418"/>
<rect x="3" y="11" width="1" height="1" fill="#2a2418"/>
<rect x="4" y="11" width="3" height="1" fill="#a33b2e"/>
<rect x="7" y="11" width="2" height="1" fill="#7d2c22"/>
<rect x="9" y="11" width="1" height="1" fill="#2a2418"/>
<rect x="10" y="11" width="12" height="1" fill="#7d2c22"/>
<rect x="22" y="11" width="1" height="1" fill="#2a2418"/>
<rect x="23" y="11" width="5" height="1" fill="#7d2c22"/>
<rect x="28" y="11" width="1" height="1" fill="#2a2418"/>
<rect x="3" y="12" width="1" height="1" fill="#2a2418"/>
<rect x="4" y="12" width="3" height="1" fill="#a33b2e"/>
<rect x="7" y="12" width="2" height="1" fill="#7d2c22"/>
<rect x="9" y="12" width="1" height="1" fill="#2a2418"/>
<rect x="10" y="12" width="2" height="1" fill="#7d2c22"/>
<rect x="12" y="12" width="8" height="1" fill="#a9743c"/>
<rect x="20" y="12" width="2" height="1" fill="#7d2c22"/>
<rect x="22" y="12" width="1" height="1" fill="#2a2418"/>
<rect x="23" y="12" width="5" height="1" fill="#7d2c22"/>
<rect x="28" y="12" width="1" height="1" fill="#2a2418"/>
<rect x="3" y="13" width="1" height="1" fill="#2a2418"/>
<rect x="4" y="13" width="3" height="1" fill="#a33b2e"/>
<rect x="7" y="13" width="2" height="1" fill="#7d2c22"/>
<rect x="9" y="13" width="1" height="1" fill="#2a2418"/>
<rect x="10" y="13" width="2" height="1" fill="#7d2c22"/>
<rect x="12" y="13" width="3" height="1" fill="#8a5a2b"/>
<rect x="15" y="13" width="1" height="1" fill="#6b4320"/>
<rect x="16" y="13" width="4" height="1" fill="#8a5a2b"/>
<rect x="20" y="13" width="2" height="1" fill="#7d2c22"/>
<rect x="22" y="13" width="1" height="1" fill="#2a2418"/>
<rect x="23" y="13" width="5" height="1" fill="#7d2c22"/>
<rect x="28" y="13" width="1" height="1" fill="#2a2418"/>
<rect x="3" y="14" width="1" height="1" fill="#2a2418"/>
<rect x="4" y="14" width="3" height="1" fill="#a33b2e"/>
<rect x="7" y="14" width="2" height="1" fill="#7d2c22"/>
<rect x="9" y="14" width="1" height="1" fill="#2a2418"/>
<rect x="10" y="14" width="2" height="1" fill="#7d2c22"/>
<rect x="12" y="14" width="3" height="1" fill="#8a5a2b"/>
<rect x="15" y="14" width="1" height="1" fill="#6b4320"/>
<rect x="16" y="14" width="4" height="1" fill="#8a5a2b"/>
<rect x="20" y="14" width="2" height="1" fill="#7d2c22"/>
<rect x="22" y="14" width="1" height="1" fill="#2a2418"/>
<rect x="23" y="14" width="5" height="1" fill="#7d2c22"/>
<rect x="28" y="14" width="1" height="1" fill="#2a2418"/>
<rect x="3" y="15" width="1" height="1" fill="#2a2418"/>
<rect x="4" y="15" width="3" height="1" fill="#a33b2e"/>
<rect x="7" y="15" width="2" height="1" fill="#7d2c22"/>
<rect x="9" y="15" width="1" height="1" fill="#2a2418"/>
<rect x="10" y="15" width="2" height="1" fill="#7d2c22"/>
<rect x="12" y="15" width="3" height="1" fill="#8a5a2b"/>
<rect x="15" y="15" width="1" height="1" fill="#6b4320"/>
<rect x="16" y="15" width="4" height="1" fill="#8a5a2b"/>
<rect x="20" y="15" width="2" height="1" fill="#7d2c22"/>
<rect x="22" y="15" width="1" height="1" fill="#2a2418"/>
<rect x="23" y="15" width="5" height="1" fill="#7d2c22"/>
<rect x="28" y="15" width="1" height="1" fill="#2a2418"/>
<rect x="3" y="16" width="1" height="1" fill="#2a2418"/>
<rect x="4" y="16" width="3" height="1" fill="#a33b2e"/>
<rect x="7" y="16" width="2" height="1" fill="#7d2c22"/>
<rect x="9" y="16" width="1" height="1" fill="#2a2418"/>
<rect x="10" y="16" width="2" height="1" fill="#7d2c22"/>
<rect x="12" y="16" width="3" height="1" fill="#8a5a2b"/>
<rect x="15" y="16" width="1" height="1" fill="#6b4320"/>
<rect x="16" y="16" width="4" height="1" fill="#8a5a2b"/>
<rect x="20" y="16" width="2" height="1" fill="#7d2c22"/>
<rect x="22" y="16" width="1" height="1" fill="#2a2418"/>
<rect x="23" y="16" width="5" height="1" fill="#7d2c22"/>
<rect x="28" y="16" width="1" height="1" fill="#2a2418"/>
<rect x="3" y="17" width="1" height="1" fill="#2a2418"/>
<rect x="4" y="17" width="3" height="1" fill="#a33b2e"/>
<rect x="7" y="17" width="2" height="1" fill="#7d2c22"/>
<rect x="9" y="17" width="1" height="1" fill="#2a2418"/>
<rect x="10" y="17" width="2" height="1" fill="#7d2c22"/>
<rect x="12" y="17" width="3" height="1" fill="#8a5a2b"/>
<rect x="15" y="17" width="1" height="1" fill="#6b4320"/>
<rect x="16" y="17" width="4" height="1" fill="#8a5a2b"/>
<rect x="20" y="17" width="2" height="1" fill="#7d2c22"/>
<rect x="22" y="17" width="1" height="1" fill="#2a2418"/>
<rect x="23" y="17" width="5" height="1" fill="#7d2c22"/>
<rect x="28" y="17" width="1" height="1" fill="#2a2418"/>
<rect x="3" y="18" width="1" height="1" fill="#2a2418"/>
<rect x="4" y="18" width="3" height="1" fill="#a33b2e"/>
<rect x="7" y="18" width="2" height="1" fill="#7d2c22"/>
<rect x="9" y="18" width="1" height="1" fill="#2a2418"/>
<rect x="10" y="18" width="2" height="1" fill="#7d2c22"/>
<rect x="12" y="18" width="3" height="1" fill="#8a5a2b"/>
<rect x="15" y="18" width="1" height="1" fill="#6b4320"/>
<rect x="16" y="18" width="4" height="1" fill="#8a5a2b"/>
<rect x="20" y="18" width="2" height="1" fill="#7d2c22"/>
<rect x="22" y="18" width="1" height="1" fill="#2a2418"/>
<rect x="23" y="18" width="5" height="1" fill="#7d2c22"/>
<rect x="28" y="18" width="1" height="1" fill="#2a2418"/>
<rect x="3" y="19" width="1" height="1" fill="#2a2418"/>
<rect x="4" y="19" width="3" height="1" fill="#a33b2e"/>
<rect x="7" y="19" width="2" height="1" fill="#7d2c22"/>
<rect x="9" y="19" width="1" height="1" fill="#2a2418"/>
<rect x="10" y="19" width="2" height="1" fill="#7d2c22"/>
<rect x="12" y="19" width="3" height="1" fill="#8a5a2b"/>
<rect x="15" y="19" width="1" height="1" fill="#6b4320"/>
<rect x="16" y="19" width="4" height="1" fill="#8a5a2b"/>
<rect x="20" y="19" width="2" height="1" fill="#7d2c22"/>
<rect x="22" y="19" width="1" height="1" fill="#2a2418"/>
<rect x="23" y="19" width="5" height="1" fill="#7d2c22"/>
<rect x="28" y="19" width="1" height="1" fill="#2a2418"/>
<rect x="3" y="20" width="1" height="1" fill="#2a2418"/>
<rect x="4" y="20" width="3" height="1" fill="#a33b2e"/>
<rect x="7" y="20" width="2" height="1" fill="#7d2c22"/>
<rect x="9" y="20" width="1" height="1" fill="#2a2418"/>
<rect x="10" y="20" width="2" height="1" fill="#7d2c22"/>
<rect x="12" y="20" width="3" height="1" fill="#8a5a2b"/>
<rect x="15" y="20" width="1" height="1" fill="#6b4320"/>
<rect x="16" y="20" width="4" height="1" fill="#8a5a2b"/>
<rect x="20" y="20" width="2" height="1" fill="#7d2c22"/>
<rect x="22" y="20" width="1" height="1" fill="#2a2418"/>
<rect x="23" y="20" width="5" height="1" fill="#7d2c22"/>
<rect x="28" y="20" width="1" height="1" fill="#2a2418"/>
<rect x="3" y="21" width="1" height="1" fill="#2a2418"/>
<rect x="4" y="21" width="3" height="1" fill="#a33b2e"/>
<rect x="7" y="21" width="2" height="1" fill="#7d2c22"/>
<rect x="9" y="21" width="1" height="1" fill="#2a2418"/>
<rect x="10" y="21" width="2" height="1" fill="#7d2c22"/>
<rect x="12" y="21" width="3" height="1" fill="#8a5a2b"/>
<rect x="15" y="21" width="1" height="1" fill="#6b4320"/>
<rect x="16" y="21" width="4" height="1" fill="#8a5a2b"/>
<rect x="20" y="21" width="2" height="1" fill="#7d2c22"/>
<rect x="22" y="21" width="1" height="1" fill="#2a2418"/>
<rect x="23" y="21" width="5" height="1" fill="#7d2c22"/>
<rect x="28" y="21" width="1" height="1" fill="#2a2418"/>
<rect x="3" y="22" width="1" height="1" fill="#2a2418"/>
<rect x="4" y="22" width="3" height="1" fill="#a33b2e"/>
<rect x="7" y="22" width="2" height="1" fill="#7d2c22"/>
<rect x="9" y="22" width="1" height="1" fill="#2a2418"/>
<rect x="10" y="22" width="2" height="1" fill="#7d2c22"/>
<rect x="12" y="22" width="3" height="1" fill="#8a5a2b"/>
<rect x="15" y="22" width="1" height="1" fill="#6b4320"/>
<rect x="16" y="22" width="4" height="1" fill="#8a5a2b"/>
<rect x="20" y="22" width="2" height="1" fill="#7d2c22"/>
<rect x="22" y="22" width="1" height="1" fill="#2a2418"/>
<rect x="23" y="22" width="5" height="1" fill="#7d2c22"/>
<rect x="28" y="22" width="1" height="1" fill="#2a2418"/>
<rect x="3" y="23" width="1" height="1" fill="#2a2418"/>
<rect x="4" y="23" width="3" height="1" fill="#a33b2e"/>
<rect x="7" y="23" width="2" height="1" fill="#7d2c22"/>
<rect x="9" y="23" width="1" height="1" fill="#2a2418"/>
<rect x="10" y="23" width="2" height="1" fill="#7d2c22"/>
<rect x="12" y="23" width="3" height="1" fill="#8a5a2b"/>
<rect x="15" y="23" width="1" height="1" fill="#6b4320"/>
<rect x="16" y="23" width="4" height="1" fill="#8a5a2b"/>
<rect x="20" y="23" width="2" height="1" fill="#7d2c22"/>
<rect x="22" y="23" width="1" height="1" fill="#2a2418"/>
<rect x="23" y="23" width="5" height="1" fill="#7d2c22"/>
<rect x="28" y="23" width="1" height="1" fill="#2a2418"/>
<rect x="4" y="24" width="4" height="1" fill="#2a2418"/>
<rect x="8" y="24" width="3" height="1" fill="#3a3530"/>
<rect x="11" y="24" width="10" height="1" fill="#2a2418"/>
<rect x="21" y="24" width="3" height="1" fill="#3a3530"/>
<rect x="24" y="24" width="4" height="1" fill="#2a2418"/>
<rect x="6" y="25" width="1" height="1" fill="#2a2418"/>
<rect x="7" y="25" width="5" height="1" fill="#3a3530"/>
<rect x="12" y="25" width="1" height="1" fill="#2a2418"/>
<rect x="19" y="25" width="1" height="1" fill="#2a2418"/>
<rect x="20" y="25" width="5" height="1" fill="#3a3530"/>
<rect x="25" y="25" width="1" height="1" fill="#2a2418"/>
<rect x="6" y="26" width="1" height="1" fill="#2a2418"/>
<rect x="7" y="26" width="2" height="1" fill="#3a3530"/>
<rect x="9" y="26" width="1" height="1" fill="#9aa0a6"/>
<rect x="10" y="26" width="2" height="1" fill="#3a3530"/>
<rect x="12" y="26" width="1" height="1" fill="#2a2418"/>
<rect x="19" y="26" width="1" height="1" fill="#2a2418"/>
<rect x="20" y="26" width="2" height="1" fill="#3a3530"/>
<rect x="22" y="26" width="1" height="1" fill="#9aa0a6"/>
<rect x="23" y="26" width="2" height="1" fill="#3a3530"/>
<rect x="25" y="26" width="1" height="1" fill="#2a2418"/>
<rect x="2" y="27" width="5" height="1" fill="#2a2418"/>
<rect x="7" y="27" width="5" height="1" fill="#3a3530"/>
<rect x="12" y="27" width="8" height="1" fill="#2a2418"/>
<rect x="20" y="27" width="5" height="1" fill="#3a3530"/>
<rect x="25" y="27" width="5" height="1" fill="#2a2418"/>
<rect x="1" y="28" width="1" height="1" fill="#2a2418"/>
<rect x="2" y="28" width="6" height="1" fill="#9aa0a6"/>
<rect x="8" y="28" width="3" height="1" fill="#3a3530"/>
<rect x="11" y="28" width="10" height="1" fill="#9aa0a6"/>
<rect x="21" y="28" width="3" height="1" fill="#3a3530"/>
<rect x="24" y="28" width="6" height="1" fill="#9aa0a6"/>
<rect x="30" y="28" width="1" height="1" fill="#2a2418"/>
<rect x="2" y="29" width="28" height="1" fill="#2a2418"/>
</svg>
