<svg xmlns="http://www.w3.org/2000/svg" viewBox="0 0 32 32" shape-rendering="crispEdges">
<rect x="5" y="4" width="23" height="1" fill="#2a2418"/>
<rect x="4" y="5" width="1" height="1" fill="#2a2418"/>
<rect x="5" y="5" width="23" height="1" fill="#f2e6c8"/>
<rect x="28" y="5" width="1" height="1" fill="#2a2418"/>
<rect x="4" y="6" width="1" height="1" fill="#2a2418"/>
<rect x="5" y="6" width="1" height="1" fill="#f2e6c8"/>
<rect x="6" y="6" width="21" height="1" fill="#d9c49a"/>
<rect x="27" y="6" width="1" height="1" fill="#f2e6c8"/>
<rect x="28" y="6" width="1" height="1" fill="#2a2418"/>
<rect x="4" y="7" width="1" height="1" fill="#2a2418"/>
<rect x="5" y="7" width="1" height="1" fill="#f2e6c8"/>
<rect x="6" y="7" width="21" height="1" fill="#d9c49a"/>
<rect x="27" y="7" width="1" height="1" fill="#f2e6c8"/>
<rect x="28" y="7" width="1" height="1" fill="#2a2418"/>
<rect x="4" y="8" width="1" height="1" fill="#2a2418"/>
<rect x="5" y="8" width="23" height="1" fill="#f2e6c8"/>
<rect x="28" y="8" width="1" height="1" fill="#2a2418"/>
<rect x="4" y="9" width="1" height="1" fill="#2a2418"/>
<rect x="5" y="9" width="3" height="1" fill="#f2e6c8"/>
<rect x="8" y="9" width="13" height="1" fill="#3a3530"/>
<rect x="21" y="9" width="7" height="1" fill="#f2e6c8"/>
<rect x="28" y="9" width="1" height="1" fill="#2a2418"/>
<rect x="4" y="10" width="1" height="1" fill="#2a2418"/>
<rect x="5" y="10" width="23" height="1" fill="#f2e6c8"/>
<rect x="28" y="10" width="1" height="1" fill="#2a2418"/>
<rect x="4" y="11" width="1" height="1" fill="#2a2418"/>
<rect x="5" y="11" width="23" height="1" fill="#f2e6c8"/>
<rect x="28" y="11" width="1" height="1" fill="#2a2418"/>
<rect x="4" y="12" width="1" height="1" fill="#2a2418"/>
<rect x="5" y="12" width="3" height="1" fill="#f2e6c8"/>
<rect x="8" y="12" width="4" height="1" fill="#a33b2e"/>
<rect x="12" y="12" width="16" height="1" fill="#f2e6c8"/>
<rect x="28" y="12" width="1" height="1" fill="#2a2418"/>
<rect x="4" y="13" width="1" height="1" fill="#2a2418"/>
<rect x="5" y="13" width="3" height="1" fill="#f2e6c8"/>
<rect x="8" y="13" width="4" height="1" fill="#a33b2e"/>
<rect x="12" y="13" width="2" height="1" fill="#f2e6c8"/>
<rect x="14" y="13" width="11" height="1" fill="#7a7068"/>
<rect x="25" y="13" width="3" height="1" fill="#f2e6c8"/>
<rect x="28" y="13" width="1" height="1" fill="#2a2418"/>
<rect x="4" y="14" width="1" height="1" fill="#2a2418"/>
<rect x="5" y="14" width="3" height="1" fill="#f2e6c8"/>
<rect x="8" y="14" width="4" height="1" fill="#a33b2e"/>
<rect x="12" y="14" width="16" height="1" fill="#f2e6c8"/>
<rect x="28" y="14" width="1" height="1" fill="#2a2418"/>
<rect x="4" y="15" width="1" height="1" fill="#2a2418"/>
<rect x="5" y="15" width="23" height="1" fill="#f2e6c8"/>
<rect x="28" y="15" width="1" height="1" fill="#2a2418"/>
<rect x="4" y="16" width="1" height="1" fill="#2a2418"/>
<rect x="5" y="16" width="23" height="1" fill="#f2e6c8"/>
<rect x="28" y="16" width="1" height="1" fill="#2a2418"/>
<rect x="4" y="17" width="1" height="1" fill="#2a2418"/>
<rect x="5" y="17" width="3" height="1" fill="#f2e6c8"/>
<rect x="8" y="17" width="4" height="1" fill="#5f8a3a"/>
<rect x="12" y="17" width="16" height="1" fill="#f2e6c8"/>
<rect x="28" y="17" width="1" height="1" fill="#2a2418"/>
<rect x="4" y="18" width="1" height="1" fill="#2a2418"/>
<rect x="5" y="18" width="3" height="1" fill="#f2e6c8"/>
<rect x="8" y="18" width="4" height="1" fill="#5f8a3a"/>
<rect x="12" y="18" width="2" height="1" fill="#f2e6c8"/>
<rect x="14" y="18" width="11" height="1" fill="#7a7068"/>
<rect x="25" y="18" width="3" height="1" fill="#f2e6c8"/>
<rect x="28" y="18" width="1" height="1" fill="#2a2418"/>
<rect x="4" y="19" width="1" height="1" fill="#2a2418"/>
<rect x="5" y="19" width="3" height="1" fill="#f2e6c8"/>
<rect x="8" y="19" width="4" height="1" fill="#5f8a3a"/>
<rect x="12" y="19" width="16" height="1" fill="#f2e6c8"/>
<rect x="28" y="19" width="1" height="1" fill="#2a2418"/>
<rect x="4" y="20" width="1" height="1" fill="#2a2418"/>
<rect x="5" y="20" width="23" height="1" fill="#f2e6c8"/>
<rect x="28" y="20" width="1" height="1" fill="#2a2418"/>
<rect x="4" y="21" width="1" height="1" fill="#2a2418"/>
<rect x="5" y="21" width="23" height="1" fill="#f2e6c8"/>
<rect x="28" y="21" width="1" height="1" fill="#2a2418"/>
<rect x="4" y="22" width="1" height="1" fill="#2a2418"/>
<rect x="5" y="22" width="3" height="1" fill="#f2e6c8"/>
<rect x="8" y="22" width="4" height="1" fill="#2c4a66"/>
<rect x="12" y="22" width="16" height="1" fill="#f2e6c8"/>
<rect x="28" y="22" width="1" height="1" fill="#2a2418"/>
<rect x="4" y="23" width="1" height="1" fill="#2a2418"/>
<rect x="5" y="23" width="3" height="1" fill="#f2e6c8"/>
<rect x="8" y="23" width="4" height="1" fill="#2c4a66"/>
<rect x="12" y="23" width="2" height="1" fill="#f2e6c8"/>
<rect x="14" y="23" width="11" height="1" fill="#7a7068"/>
<rect x="25" y="23" width="3" height="1" fill="#f2e6c8"/>
<rect x="28" y="23" width="1" height="1" fill="#2a2418"/>
<rect x="4" y="24" width="1" height="1" fill="#2a2418"/>
<rect x="5" y="24" width="3" height="1" fill="#f2e6c8"/>
<rect x="8" y="24" width="4" height="1" fill="#2c4a66"/>
<rect x="12" y="24" width="16" height="1" fill="#f2e6c8"/>
<rect x="28" y="24" width="1" height="1" fill="#2a2418"/>
<rect x="4" y="25" width="1" height="1" fill="#2a2418"/>
<rect x="5" y="25" width="23" height="1" fill="#f2e6c8"/>
<rect x="28" y="25" width="1" height="1" fill="#2a2418"/>
<rect x="4" y="26" width="1" height="1" fill="#2a2418"/>
<rect x="5" y="26" width="23" height="1" fill="#f2e6c8"/>
<rect x="28" y="26" width="1" height="1" fill="#2a2418"/>
<rect x="4" y="27" width="1" height="1" fill="#2a2418"/>
<rect x="5" y="27" width="23" height="1" fill="#f2e6c8"/>
<rect x="28" y="27" width="1" height="1" fill="#2a2418"/>
<rect x="5" y="28" width="23" height="1" fill="#2a2418"/>
</svg>
